# xmcd CD database file
#
# Track frame offsets:
#	150
#	14602
#	29812
#	43185
#	56650
#	69125
#	82385
#	96550
#	110690
#	122880
#	136530
#	148137
#	162890
#	176567
#	190745
#	203275
#	216990
#	232780
#	246095
#	259807
#
# Disc length: 3658 seconds
#
# Revision: 1
# Processed by: cddbd v1.4PL0 Copyright (c) Steve Scherf et al.
# Submitted via: CDex 1.50beta10
#
DISCID=270e4814
DTITLE=Thelonious Monk - The Best of Thelonious Monk
DYEAR=1997
DGENRE=Jazz
TTITLE0='Round Midnight
TTITLE1=April In Paris
TTITLE2=Straight No Chaser
TTITLE3=Well You Needn't
TTITLE4=Misterioso
TTITLE5=In Walked Bud
TTITLE6=Ruby My Dear
TTITLE7=Epistrophy
TTITLE8=Who Knows?
TTITLE9=Off Minor
TTITLE10=Evidence
TTITLE11=Hornin' In
TTITLE12=Willow Weep For Me
TTITLE13=Monk's Mood
TTITLE14=I Mean You
TTITLE15=Nice Work If You Can Get It
TTITLE16=Four In One
TTITLE17=Criss Cross
TTITLE18=Skippy
TTITLE19=Ask Me Now
EXTD=YEAR: 1997
EXTT0=
EXTT1=
EXTT2=
EXTT3=
EXTT4=
EXTT5=
EXTT6=
EXTT7=
EXTT8=
EXTT9=
EXTT10=
EXTT11=
EXTT12=
EXTT13=
EXTT14=
EXTT15=
EXTT16=
EXTT17=
EXTT18=
EXTT19=
PLAYORDER=
